:FULLY-SPECIFIED
:FORCE-ALL-JOINTS-BE-3DOF
:DEGREES
442
root 1.48949 15.2316 -9.1147 5.49212 4.83139 -13.5423
lfemur -46.8501 16.8114 3.9745
ltibia 62.9553 0 0
lfoot -24.9916 -10.2701 0
ltoes -12.7255 0 0
rfemur -14.9411 -3.44768 8.90199
rtibia 38.8284 0 0
rfoot -14.6389 -13.9723 0
rtoes -49.791 0 0
lowerback 6.02945 1.6015 4.3986
upperback 1.01281 2.43843 0.924751
thorax -2.1908 1.18676 -1.7001
lowerneck -7.15866 0.0337935 5.62298
upperneck 0.687406 -0.434285 0.0690367
head 1.41974 -0.189785 -0.949097
lclavicle 2.90226e-14 6.36111e-15 0
lhumerus -39.6318 -28.4329 97.6213
lradius 54.1431 0 0
lwrist 7.92235 0 0
lhand -20.0855 -1.30814 0
lfingers 7.12502 0 0
lthumb 6.25724 28.5794 0
rclavicle 2.90226e-14 6.36111e-15 0
rhumerus -48.3514 -2.52445 -89.7222
rradius 66.3347 0 0
rwrist 12.906 0 0
rhand -30.9208 -29.1118 0
rfingers 7.12502 0 0
rthumb -4.20662 -779.05 0
443
root 1.54028 15.267 -9.04863 5.91162 6.44669 -14.6709
lfemur -50.6673 18.4762 3.52834
ltibia 66.9035 -0 0
lfoot -26.8301 -10.8672 0.0104031
ltoes -12.9085 0 0
rfemur -15.3838 -3.68689 9.8147
rtibia 41.4245 -0 0
rfoot -14.3727 -15.2562 -0.0499536
rtoes -53.5569 0 0
lowerback 6.30738 1.68302 4.84431
upperback 1.02719 2.56914 1.06613
thorax -2.32544 1.25029 -1.81386
lowerneck -7.79121 -0.102263 6.00115
upperneck 0.804236 -0.651086 0.0876232
head 1.55947 -0.29493 -1.01658
lclavicle 2.48954e-14 5.03588e-15 0
lhumerus -43.312 -27.8895 102.767
lradius 57.7813 -0 0
lwrist 8.30066 0 0
lhand -22.0289 -1.91966 0.0160938
lfingers 7.12502 0 0
lthumb 6.4707 30.3531 0.0171778
rclavicle 2.48954e-14 5.03588e-15 0
rhumerus -52.0894 -2.66119 -93.7638
rradius 70.3379 -0 0
rwrist 13.8166 0 0
rhand -33.4312 -31.5007 -0.00226464
rfingers 7.12502 0 0
rthumb -4.63257 -63.0747 -0.00211046
444
root 1.59107 15.3024 -8.98255 6.21612 7.7803 -15.516
lfemur -53.3894 19.7292 3.16829
ltibia 69.553 -0 0
lfoot -28.1415 -11.3259 0.016364
ltoes -13.0078 0 0
rfemur -15.5626 -3.84519 10.4839
rtibia 43.1505 -0 0
rfoot -14.1296 -16.2401 -0.0946618
rtoes -56.3036 0 0
lowerback 6.48951 1.73523 5.17993
upperback 1.02976 2.65492 1.17943
thorax -2.421 1.29181 -1.89154
lowerneck -8.25199 -0.219433 6.26089
upperneck 0.883119 -0.832036 0.108502
head 1.65806 -0.383125 -1.0615
lclavicle 2.07683e-14 3.71065e-15 0
lhumerus -45.9119 -27.4611 105.937
lradius 60.255 -0 0
lwrist 8.53778 0 0
lhand -23.4513 -2.40612 0.027385
lfingers 7.12502 0 0
lthumb 6.59583 31.5723 0.0293246
rclavicle 2.07683e-14 3.71065e-15 0
rhumerus -54.6818 -2.77131 -96.2805
rradius 72.968 -0 0
rwrist 14.4602 0 0
rhand -35.2196 -33.2246 -0.00460169
rfingers 7.12502 0 0
rthumb -4.9536 -65.8056 -0.00419057
445
root 1.64186 15.3377 -8.91648 6.40834 8.81933 -16.0843
lfemur -55.1414 20.5811 2.90978
ltibia 71.1532 -0 0
lfoot -28.9624 -11.6553 0.0182904
ltoes -13.0432 0 0
rfemur -15.5082 -3.92607 10.9141
rtibia 44.1042 -0 0
rfoot -13.9345 -16.9289 -0.134319
rtoes -58.1776 0 0
lowerback 6.584 1.7602 5.40664
upperback 1.02252 2.69877 1.2638
thorax -2.4797 1.31281 -1.93484
lowerneck -8.54596 -0.315226 6.40795
upperneck 0.924282 -0.974193 0.131322
head 1.71645 -0.452885 -1.08484
lclavicle 1.66411e-14 2.38542e-15 0
lhumerus -47.5197 -27.1928 107.744
lradius 61.7508 -0 0
lwrist 8.6451 0 0
lhand -24.3721 -2.75962 0.0348153
lfingers 7.12502 0 0
lthumb 6.64341 32.2862 0.0374697
rclavicle 1.66411e-14 2.38542e-15 0
rhumerus -56.2814 -2.86865 -97.6987
rradius 74.5041 -0 0
rwrist 14.8511 0 0
rhand -36.342 -34.3314 -0.00693601
rfingers 7.12502 0 0
rthumb -5.17079 -67.4709 -0.00622436
446
root 1.69265 15.3731 -8.8504 6.49574 9.5736 -16.3936
lfemur -56.0528 21.0604 2.7549
ltibia 71.8963 -0 0
lfoot -29.3416 -11.8667 0.0166264
ltoes -13.0276 0 0
rfemur -15.2536 -3.93619 11.1215
rtibia 44.3861 -0 0
rfoot -13.7969 -17.3412 -0.169342
rtoes -59.3128 0 0
lowerback 6.60043 1.76066 5.53099
upperback 1.00723 2.70481 1.32021
thorax -2.50487 1.31532 -1.94672
lowerneck -8.68549 -0.389389 6.45207
upperneck 0.930381 -1.07801 0.155628
head 1.73764 -0.504369 -1.08843
lclavicle 1.2514e-14 1.06019e-15 0
lhumerus -48.2487 -27.081 108.546
lradius 62.427 -0 0
lwrist 8.63678 0 0
lhand -24.8316 -2.98306 0.0391602
lfingers 7.12502 0 0
lthumb 6.62454 32.5515 0.0424347
rclavicle 1.2514e-14 1.06019e-15 0
rhumerus -57.0327 -2.96049 -98.281
rradius 75.154 -0 0
rwrist 15.012 0 0
rhand -36.8694 -34.8843 -0.00921345
rfingers 7.12502 0 0
rthumb -5.29028 -68.256 -0.00821296
447
root 1.74344 15.4085 -8.78433 6.48943 10.0685 -16.4706
lfemur -56.2433 21.2072 2.69561
ltibia 71.9257 -0 0
lfoot -29.3345 -11.9725 0.0118418
ltoes -12.9697 0 0
rfemur -14.8328 -3.8843 11.131
rtibia 44.0925 -0 0
rfoot -13.715 -17.5047 -0.200261
rtoes -59.8235 0 0
lowerback 6.54932 1.73984 5.56348
upperback 0.985421 2.67792 1.35099
thorax -2.50056 1.30175 -1.931
lowerneck -8.68815 -0.443318 6.40577
upperneck 0.905785 -1.14644 0.180921
head 1.72605 -0.538954 -1.07473
lclavicle 8.38684e-15 -2.65035e-16 0
lhumerus -48.2176 -27.1086 108.554
lradius 62.4122 -0 0
lwrist 8.52884 0 0
lhand -24.8827 -3.08728 0.0410595
lfingers 7.12502 0 0
lthumb 6.5504 32.4278 0.0448667
rclavicle 8.38684e-15 -2.65035e-16 0
rhumerus -57.0626 -3.05062 -98.1888
rradius 75.0681 -0 0
rwrist 14.9716 0 0
rhand -36.8787 -34.9536 -0.0113931
rfingers 7.12502 0 0
rthumb -5.32197 -68.3046 -0.01016
448
root 1.79423 15.4439 -8.71825 6.4031 10.3395 -16.3476
lfemur -55.8216 21.0688 2.71697
ltibia 71.3504 -0 0
lfoot -29.0003 -11.9865 0.00442444
ltoes -12.8749 0 0
rfemur -14.2804 -3.78046 10.973
rtibia 43.3159 -0 0
rfoot -13.6795 -17.4535 -0.227647
rtoes -59.8071 0 0
lowerback 6.4418 1.70127 5.51727
upperback 0.958433 2.62349 1.35944
thorax -2.47135 1.27474 -1.89208
lowerneck -8.57502 -0.479564 6.28342
upperneck 0.855953 -1.18421 0.206701
head 1.68704 -0.558868 -1.04659
lclavicle 4.25969e-15 -1.59026e-15 0
lhumerus -47.5431 -27.2556 107.89
lradius 61.8125 -0 0
lwrist 8.33842 0 0
lhand -24.586 -3.08861 0.0410448
lfingers 7.12502 0 0
lthumb 6.43206 31.9758 0.04528
rclavicle 4.25969e-15 -1.59026e-15 0
rhumerus -56.4816 -3.14086 -97.5228
rradius 74.3579 -0 0
rwrist 14.7617 0 0
rhand -36.4489 -34.6125 -0.0134424
rfingers 7.12502 0 0
rthumb -5.27826 -67.7301 -0.0120644
449
root 1.84502 15.4792 -8.65218 6.25198 10.4282 -16.0611
lfemur -54.8891 20.697 2.79993
ltibia 70.2597 -0 0
lfoot -28.4002 -11.9233 -0.0051255
ltoes -12.7469 0 0
rfemur -13.6302 -3.63541 10.681
rtibia 42.1466 -0 0
rfoot -13.6768 -17.2251 -0.252048
rtoes -59.3487 0 0
lowerback 6.28925 1.64861 5.40716
upperback 0.927474 2.54714 1.34946
thorax -2.42211 1.23704 -1.83467
lowerneck -8.36911 -0.501414 6.10036
upperneck 0.786904 -1.19712 0.232512
head 1.6265 -0.566877 -1.00704
lclavicle 1.32533e-16 -2.91549e-15 0
lhumerus -46.3415 -27.5 106.628
lradius 60.7212 -0 0
lwrist 8.08305 0 0
lhand -24.0068 -3.00666 0.039565
lfingers 7.12502 0 0
lthumb 6.2803 31.2573 0.0440971
rclavicle 1.32533e-16 -2.91549e-15 0
rhumerus -55.3912 -3.23162 -96.3494
rradius 73.1131 -0 0
rwrist 14.4164 0 0
rhand -35.6602 -33.9359 -0.0153344
rfingers 7.12502 0 0
rthumb -5.17315 -66.6282 -0.0139176
